<svg width="1200" height="1200" viewBox="0 0 1200 1200" fill="none" xmlns="http://www.w3.org/2000/svg">
<g clip-path="url(#clip0_18_418)">
<rect width="1200" height="1200" fill="#121213"/>
<g opacity="0.1">
<g filter="url(#filter0_d_18_418)">
<rect x="172" y="190.562" width="183" height="183" rx="13.0714" transform="rotate(-11.8444 172 190.562)" fill="#242426"/>
<path d="M269.595 297.813L257.002 300.454L266.271 230.517L280.836 227.463L317.455 287.776L304.862 290.417L276.609 242.293L276.101 242.4L269.595 297.813ZM264.653 272.19L298.998 264.988L300.985 274.464L266.64 281.667L264.653 272.19Z" fill="white" fill-opacity="0.2"/>
</g>
<g filter="url(#filter1_d_18_418)">
<rect x="585.157" y="458" width="130.035" height="130.035" rx="9.28819" transform="rotate(8.91763 585.157 458)" fill="#242426"/>
<path d="M621.365 553.77L628.695 507.057L658.621 511.752L657.508 518.846L636.044 515.478L634.054 528.16L653.465 531.206L652.352 538.3L632.941 535.254L629.827 555.098L621.365 553.77Z" fill="white" fill-opacity="0.2"/>
</g>
<g filter="url(#filter2_d_18_418)">
<rect x="872.157" y="607" width="130.035" height="130.035" rx="9.28819" transform="rotate(8.91763 872.157 607)" fill="#242426"/>
<path d="M934.162 658.954L926.832 705.668L918.37 704.34L925.7 657.626L934.162 658.954Z" fill="white" fill-opacity="0.2"/>
</g>
<g filter="url(#filter3_d_18_418)">
<rect x="856.105" y="894" width="222.894" height="222.894" rx="15.921" transform="rotate(12.2005 856.105 894)" fill="#242426"/>
<path d="M903.918 1059.85L921.047 980.629L935.398 983.731L927.528 1020.13L928.495 1020.34L967.273 990.623L984.796 994.412L946.473 1023.34L967.938 1073.69L950.685 1069.96L934.394 1030.89L923.371 1039.36L918.269 1062.95L903.918 1059.85Z" fill="white" fill-opacity="0.2"/>
</g>
<g filter="url(#filter4_d_18_418)">
<rect x="1089.16" y="134" width="130.035" height="130.035" rx="9.28819" transform="rotate(8.91763 1089.16 134)" fill="#242426"/>
<path d="M1126.94 230.018L1117.91 228.6L1141.68 184.467L1152.13 186.106L1161.27 235.404L1152.24 233.987L1145.59 194.895L1145.22 194.838L1126.94 230.018ZM1130.11 211.748L1154.75 215.614L1153.68 222.411L1129.05 218.546L1130.11 211.748Z" fill="white" fill-opacity="0.2"/>
</g>
<g filter="url(#filter5_d_18_418)">
<rect x="481" y="268.898" width="130.035" height="130.035" rx="9.28819" transform="rotate(-14.2 481 268.898)" fill="#242426"/>
<path d="M566.036 339.948L537.204 322.761C534.904 321.39 533.14 319.566 531.913 317.288C530.701 315.007 530.097 312.588 530.1 310.03C530.101 307.458 530.784 305.046 532.152 302.795C533.552 300.488 535.371 298.734 537.608 297.533C539.855 296.313 542.25 295.707 544.793 295.714C547.35 295.718 549.791 296.395 552.117 297.743L555.909 299.927L558.206 296.202C559.625 293.906 561.451 292.15 563.684 290.934C565.917 289.718 568.304 289.114 570.847 289.122C573.4 289.111 575.842 289.787 578.171 291.15C580.445 292.48 582.193 294.277 583.417 296.539C584.637 298.787 585.248 301.204 585.252 303.791C585.271 306.375 584.594 308.816 583.223 311.116L566.036 339.948Z" fill="white" fill-opacity="0.2"/>
</g>
<g filter="url(#filter6_d_18_418)">
<rect x="841.744" y="132" width="93.8598" height="93.8598" rx="6.70427" transform="rotate(7.18755 841.744 132)" fill="#242426"/>
<path d="M866.879 165.276L874.386 166.222L881.344 192.027L881.741 192.077L894.888 168.808L902.395 169.754L898.125 203.617L892.238 202.875L895.172 179.611L894.858 179.571L882.578 201.556L878.18 201.001L871.749 176.606L871.435 176.567L868.495 199.88L862.609 199.138L866.879 165.276Z" fill="white" fill-opacity="0.2"/>
</g>
<g filter="url(#filter7_d_18_418)">
<rect x="89" y="785.2" width="130.035" height="130.035" rx="9.28819" transform="rotate(-18.9371 89 785.2)" fill="#242426"/>
<path d="M167.269 852.439L158.621 855.406L159.021 805.278L169.023 801.846L200.137 841.162L191.488 844.129L167.344 812.674L166.995 812.794L167.269 852.439ZM161.536 834.805L185.122 826.712L187.355 833.22L163.769 841.313L161.536 834.805Z" fill="white" fill-opacity="0.2"/>
</g>
<g filter="url(#filter8_d_18_418)">
<rect x="809" y="317.664" width="158.992" height="158.992" rx="11.3565" transform="rotate(-13.7032 809 317.664)" fill="#242426"/>
<path d="M921.202 341.961L934.898 398.13L925.847 400.337L890.051 368.531L889.585 368.644L898.914 406.904L888.739 409.385L875.043 353.216L884.148 350.996L919.923 382.836L920.417 382.716L911.081 344.428L921.202 341.961Z" fill="white" fill-opacity="0.2"/>
</g>
<g filter="url(#filter9_d_18_418)">
<rect x="1055" y="366.104" width="158.992" height="158.992" rx="11.3565" transform="rotate(-6.90103 1055 366.104)" fill="#242426"/>
<path d="M1128.59 465.985L1121.65 408.588L1158.98 404.07L1160.03 412.786L1133.1 416.046L1134.98 431.628L1159.98 428.602L1161.04 437.318L1136.04 440.344L1137.94 456.01L1165.09 452.723L1166.15 461.439L1128.59 465.985Z" fill="white" fill-opacity="0.2"/>
</g>
<g filter="url(#filter10_d_18_418)">
<rect x="-58" y="75.1036" width="158.992" height="158.992" rx="11.3565" transform="rotate(-6.90103 -58 75.1036)" fill="#242426"/>
<path d="M33.1406 114.624L43.454 113.376L48.3384 153.732C48.7675 157.434 48.3683 160.714 47.141 163.574C45.9113 166.415 43.9916 168.723 41.3819 170.498C38.7886 172.253 35.6516 173.353 31.9709 173.799C28.6078 174.206 25.5087 173.974 22.6735 173.104C19.8548 172.213 17.5171 170.676 15.6605 168.493C13.8039 166.31 12.6619 163.453 12.2345 159.922L22.5759 158.67C22.7823 160.219 23.2802 161.514 24.0699 162.556C24.8781 163.595 25.907 164.343 27.1564 164.798C28.4059 165.254 29.7966 165.389 31.3287 165.203C32.9915 165.002 34.3603 164.486 35.435 163.654C36.5075 162.804 37.259 161.651 37.6895 160.197C38.1388 158.739 38.2506 157.001 38.0251 154.981L33.1406 114.624Z" fill="white" fill-opacity="0.2"/>
</g>
<g filter="url(#filter11_d_18_418)">
<rect x="-34.6249" y="435" width="193.771" height="193.771" rx="11.3565" transform="rotate(4.25444 -34.6249 435)" fill="#242426"/>
<path d="M32.3957 566.334L36.6848 508.678L58.7562 510.32C62.9227 510.63 66.3365 511.544 68.9977 513.063C71.6791 514.565 73.621 516.493 74.8236 518.847C76.0449 521.203 76.5494 523.807 76.3372 526.659C76.1627 529.005 75.5628 530.98 74.5377 532.583C73.514 534.168 72.2036 535.42 70.6066 536.339C69.0096 537.258 67.2559 537.873 65.3456 538.184L65.3037 538.747C67.3411 539.012 69.2556 539.787 71.0472 541.071C72.859 542.338 74.2887 544.049 75.3363 546.202C76.3839 548.356 76.7988 550.897 76.581 553.825C76.359 556.809 75.4368 559.439 73.8143 561.715C72.1932 563.973 69.8772 565.678 66.8662 566.832C63.8552 567.985 60.1445 568.398 55.7339 568.07L32.3957 566.334ZM43.4894 558.384L54.7222 559.219C58.5134 559.501 61.2979 558.982 63.0758 557.661C64.8738 556.323 65.858 554.509 66.0283 552.219C66.1554 550.511 65.8476 548.941 65.1049 547.508C64.3637 546.056 63.2435 544.878 61.7444 543.974C60.2466 543.051 58.4186 542.509 56.2603 542.349L44.746 541.492L43.4894 558.384ZM45.3052 533.976L55.637 534.744C57.4388 534.878 59.0867 534.671 60.5807 534.121C62.0761 533.553 63.2821 532.69 64.1986 531.531C65.1353 530.355 65.6665 528.923 65.7922 527.234C65.9583 525 65.3069 523.102 63.8379 521.54C62.3876 519.979 60.1235 519.084 57.0455 518.855L46.4884 518.07L45.3052 533.976Z" fill="white" fill-opacity="0.2"/>
</g>
<g filter="url(#filter12_d_18_418)">
<rect x="351" y="665.342" width="158.992" height="158.992" rx="11.3565" transform="rotate(-5.53746 351 665.342)" fill="#242426"/>
<path d="M412.849 718.587L412.001 709.848L457.914 705.397L458.761 714.136L440.975 715.86L445.707 764.667L435.366 765.669L430.635 716.862L412.849 718.587Z" fill="white" fill-opacity="0.2"/>
</g>
<g filter="url(#filter13_d_18_418)">
<rect x="-55" y="1031.78" width="232.698" height="232.698" rx="16.6213" transform="rotate(-8.09793 -55 1031.78)" fill="#242426"/>
<path d="M112.005 1111.99L96.7069 1114.16C95.9136 1111.72 94.7929 1109.61 93.3448 1107.84C91.8928 1106.04 90.1972 1104.59 88.2579 1103.47C86.3186 1102.36 84.1824 1101.62 81.8493 1101.25C79.5395 1100.86 77.1029 1100.84 74.5395 1101.21C69.9854 1101.86 66.1124 1103.58 62.9205 1106.37C59.7247 1109.13 57.4438 1112.85 56.0778 1117.52C54.7079 1122.17 54.4711 1127.64 55.3674 1133.94C56.2792 1140.35 58.0428 1145.61 60.6582 1149.72C63.297 1153.79 66.5208 1156.7 70.3296 1158.44C74.1617 1160.15 78.3412 1160.68 82.868 1160.04C85.3769 1159.68 87.6755 1159.02 89.764 1158.05C91.8759 1157.06 93.7113 1155.78 95.2704 1154.22C96.8567 1152.66 98.114 1150.84 99.0423 1148.76C99.9978 1146.68 100.533 1144.38 100.647 1141.86L115.957 1139.76C115.951 1143.82 115.242 1147.74 113.83 1151.5C112.445 1155.26 110.415 1158.69 107.741 1161.8C105.063 1164.88 101.786 1167.46 97.9087 1169.54C94.0277 1171.59 89.592 1172.98 84.6016 1173.69C77.2387 1174.73 70.4241 1173.96 64.1578 1171.38C57.8915 1168.79 52.6371 1164.52 48.3944 1158.56C44.1517 1152.59 41.3902 1145.11 40.1098 1136.11C38.8254 1127.09 39.4045 1119.13 41.8469 1112.24C44.2854 1105.33 48.1528 1099.76 53.449 1095.53C58.7453 1091.3 65.0476 1088.66 72.356 1087.62C77.0192 1086.96 81.4482 1087 85.6432 1087.73C89.8381 1088.47 93.6841 1089.89 97.181 1091.98C100.674 1094.04 103.689 1096.75 106.227 1100.12C108.789 1103.46 110.715 1107.41 112.005 1111.99ZM60.5485 1064.18L70.3422 1073.47L77.156 1061.82L90.1229 1059.97L90.2044 1060.54L77.2566 1080.41L65.6804 1082.06L47.6631 1066.6L47.5816 1066.02L60.5485 1064.18Z" fill="white" fill-opacity="0.2"/>
</g>
<g filter="url(#filter14_d_18_418)">
<rect x="352.98" y="949" width="146.95" height="146.95" rx="10.4964" transform="rotate(13.3697 352.98 949)" fill="#242426"/>
<path d="M385.55 1059.53L397.906 1007.54L431.211 1015.45L429.334 1023.35L405.447 1017.67L402.093 1031.79L423.695 1036.92L421.819 1044.81L400.216 1039.68L394.967 1061.77L385.55 1059.53Z" fill="white" fill-opacity="0.2"/>
</g>
</g>
<path opacity="0.1" d="M1209.53 915.469L1031.91 826L1214.93 942.967L1209.53 915.469Z" fill="white" fill-opacity="0.4"/>
<path opacity="0.1" d="M1390.18 915.002L947.524 745L1395.58 942.5L1390.18 915.002Z" fill="white" fill-opacity="0.4"/>
<path opacity="0.1" d="M1312.82 533.893L927 533.893L1329.43 556.461L1312.82 533.893Z" fill="white" fill-opacity="0.4"/>
<path opacity="0.1" d="M507.881 1231.38L723.029 857.275L480 1228.56L507.881 1231.38Z" fill="white" fill-opacity="0.4"/>
<path opacity="0.1" d="M635.978 1236.36L723.02 945.676L608 1237.94L635.978 1236.36Z" fill="white" fill-opacity="0.4"/>
<path opacity="0.1" d="M-257.096 891.015L244.512 707.606L-276 870.33L-257.096 891.015Z" fill="white" fill-opacity="0.4"/>
<path opacity="0.1" d="M-134.005 769.848L150.986 708.49L-151 747.567L-134.005 769.848Z" fill="white" fill-opacity="0.4"/>
<path opacity="0.1" d="M212.616 -77.3082L508.548 236.802L223.37 -103.185L212.616 -77.3082Z" fill="white" fill-opacity="0.4"/>
<path opacity="0.1" d="M0.11983 -72.2129L367.81 153.719L3.74289 -100L0.11983 -72.2129Z" fill="white" fill-opacity="0.4"/>
</g>
<defs>
<filter id="filter0_d_18_418" x="155" y="153" width="250.665" height="257.665" filterUnits="userSpaceOnUse" color-interpolation-filters="sRGB">
<feFlood flood-opacity="0" result="BackgroundImageFix"/>
<feColorMatrix in="SourceAlpha" type="matrix" values="0 0 0 0 0 0 0 0 0 0 0 0 0 0 0 0 0 0 127 0" result="hardAlpha"/>
<feOffset dy="24"/>
<feGaussianBlur stdDeviation="8.5"/>
<feComposite in2="hardAlpha" operator="out"/>
<feColorMatrix type="matrix" values="0 0 0 0 0 0 0 0 0 0 0 0 0 0 0 0 0 0 0.6 0"/>
<feBlend mode="normal" in2="BackgroundImageFix" result="effect1_dropShadow_18_418"/>
<feBlend mode="normal" in="SourceGraphic" in2="effect1_dropShadow_18_418" result="shape"/>
</filter>
<filter id="filter1_d_18_418" x="548" y="458" width="182.62" height="189.62" filterUnits="userSpaceOnUse" color-interpolation-filters="sRGB">
<feFlood flood-opacity="0" result="BackgroundImageFix"/>
<feColorMatrix in="SourceAlpha" type="matrix" values="0 0 0 0 0 0 0 0 0 0 0 0 0 0 0 0 0 0 127 0" result="hardAlpha"/>
<feOffset dy="24"/>
<feGaussianBlur stdDeviation="8.5"/>
<feComposite in2="hardAlpha" operator="out"/>
<feColorMatrix type="matrix" values="0 0 0 0 0 0 0 0 0 0 0 0 0 0 0 0 0 0 0.6 0"/>
<feBlend mode="normal" in2="BackgroundImageFix" result="effect1_dropShadow_18_418"/>
<feBlend mode="normal" in="SourceGraphic" in2="effect1_dropShadow_18_418" result="shape"/>
</filter>
<filter id="filter2_d_18_418" x="835" y="607" width="182.62" height="189.62" filterUnits="userSpaceOnUse" color-interpolation-filters="sRGB">
<feFlood flood-opacity="0" result="BackgroundImageFix"/>
<feColorMatrix in="SourceAlpha" type="matrix" values="0 0 0 0 0 0 0 0 0 0 0 0 0 0 0 0 0 0 127 0" result="hardAlpha"/>
<feOffset dy="24"/>
<feGaussianBlur stdDeviation="8.5"/>
<feComposite in2="hardAlpha" operator="out"/>
<feColorMatrix type="matrix" values="0 0 0 0 0 0 0 0 0 0 0 0 0 0 0 0 0 0 0.6 0"/>
<feBlend mode="normal" in2="BackgroundImageFix" result="effect1_dropShadow_18_418"/>
<feBlend mode="normal" in="SourceGraphic" in2="effect1_dropShadow_18_418" result="shape"/>
</filter>
<filter id="filter3_d_18_418" x="779.86" y="894" width="323.245" height="335.244" filterUnits="userSpaceOnUse" color-interpolation-filters="sRGB">
<feFlood flood-opacity="0" result="BackgroundImageFix"/>
<feColorMatrix in="SourceAlpha" type="matrix" values="0 0 0 0 0 0 0 0 0 0 0 0 0 0 0 0 0 0 127 0" result="hardAlpha"/>
<feOffset dy="41.1388"/>
<feGaussianBlur stdDeviation="14.57"/>
<feComposite in2="hardAlpha" operator="out"/>
<feColorMatrix type="matrix" values="0 0 0 0 0 0 0 0 0 0 0 0 0 0 0 0 0 0 0.6 0"/>
<feBlend mode="normal" in2="BackgroundImageFix" result="effect1_dropShadow_18_418"/>
<feBlend mode="normal" in="SourceGraphic" in2="effect1_dropShadow_18_418" result="shape"/>
</filter>
<filter id="filter4_d_18_418" x="1052" y="134" width="182.62" height="189.62" filterUnits="userSpaceOnUse" color-interpolation-filters="sRGB">
<feFlood flood-opacity="0" result="BackgroundImageFix"/>
<feColorMatrix in="SourceAlpha" type="matrix" values="0 0 0 0 0 0 0 0 0 0 0 0 0 0 0 0 0 0 127 0" result="hardAlpha"/>
<feOffset dy="24"/>
<feGaussianBlur stdDeviation="8.5"/>
<feComposite in2="hardAlpha" operator="out"/>
<feColorMatrix type="matrix" values="0 0 0 0 0 0 0 0 0 0 0 0 0 0 0 0 0 0 0.6 0"/>
<feBlend mode="normal" in2="BackgroundImageFix" result="effect1_dropShadow_18_418"/>
<feBlend mode="normal" in="SourceGraphic" in2="effect1_dropShadow_18_418" result="shape"/>
</filter>
<filter id="filter5_d_18_418" x="464" y="237" width="191.96" height="198.96" filterUnits="userSpaceOnUse" color-interpolation-filters="sRGB">
<feFlood flood-opacity="0" result="BackgroundImageFix"/>
<feColorMatrix in="SourceAlpha" type="matrix" values="0 0 0 0 0 0 0 0 0 0 0 0 0 0 0 0 0 0 127 0" result="hardAlpha"/>
<feOffset dy="24"/>
<feGaussianBlur stdDeviation="8.5"/>
<feComposite in2="hardAlpha" operator="out"/>
<feColorMatrix type="matrix" values="0 0 0 0 0 0 0 0 0 0 0 0 0 0 0 0 0 0 0.6 0"/>
<feBlend mode="normal" in2="BackgroundImageFix" result="effect1_dropShadow_18_418"/>
<feBlend mode="normal" in="SourceGraphic" in2="effect1_dropShadow_18_418" result="shape"/>
</filter>
<filter id="filter6_d_18_418" x="817.729" y="132" width="129.407" height="134.46" filterUnits="userSpaceOnUse" color-interpolation-filters="sRGB">
<feFlood flood-opacity="0" result="BackgroundImageFix"/>
<feColorMatrix in="SourceAlpha" type="matrix" values="0 0 0 0 0 0 0 0 0 0 0 0 0 0 0 0 0 0 127 0" result="hardAlpha"/>
<feOffset dy="17.3233"/>
<feGaussianBlur stdDeviation="6.13535"/>
<feComposite in2="hardAlpha" operator="out"/>
<feColorMatrix type="matrix" values="0 0 0 0 0 0 0 0 0 0 0 0 0 0 0 0 0 0 0.6 0"/>
<feBlend mode="normal" in2="BackgroundImageFix" result="effect1_dropShadow_18_418"/>
<feBlend mode="normal" in="SourceGraphic" in2="effect1_dropShadow_18_418" result="shape"/>
</filter>
<filter id="filter7_d_18_418" x="72" y="743" width="199.197" height="206.197" filterUnits="userSpaceOnUse" color-interpolation-filters="sRGB">
<feFlood flood-opacity="0" result="BackgroundImageFix"/>
<feColorMatrix in="SourceAlpha" type="matrix" values="0 0 0 0 0 0 0 0 0 0 0 0 0 0 0 0 0 0 127 0" result="hardAlpha"/>
<feOffset dy="24"/>
<feGaussianBlur stdDeviation="8.5"/>
<feComposite in2="hardAlpha" operator="out"/>
<feColorMatrix type="matrix" values="0 0 0 0 0 0 0 0 0 0 0 0 0 0 0 0 0 0 0.6 0"/>
<feBlend mode="normal" in2="BackgroundImageFix" result="effect1_dropShadow_18_418"/>
<feBlend mode="normal" in="SourceGraphic" in2="effect1_dropShadow_18_418" result="shape"/>
</filter>
<filter id="filter8_d_18_418" x="792" y="280" width="226.13" height="233.13" filterUnits="userSpaceOnUse" color-interpolation-filters="sRGB">
<feFlood flood-opacity="0" result="BackgroundImageFix"/>
<feColorMatrix in="SourceAlpha" type="matrix" values="0 0 0 0 0 0 0 0 0 0 0 0 0 0 0 0 0 0 127 0" result="hardAlpha"/>
<feOffset dy="24"/>
<feGaussianBlur stdDeviation="8.5"/>
<feComposite in2="hardAlpha" operator="out"/>
<feColorMatrix type="matrix" values="0 0 0 0 0 0 0 0 0 0 0 0 0 0 0 0 0 0 0.6 0"/>
<feBlend mode="normal" in2="BackgroundImageFix" result="effect1_dropShadow_18_418"/>
<feBlend mode="normal" in="SourceGraphic" in2="effect1_dropShadow_18_418" result="shape"/>
</filter>
<filter id="filter9_d_18_418" x="1038" y="347" width="210.943" height="217.943" filterUnits="userSpaceOnUse" color-interpolation-filters="sRGB">
<feFlood flood-opacity="0" result="BackgroundImageFix"/>
<feColorMatrix in="SourceAlpha" type="matrix" values="0 0 0 0 0 0 0 0 0 0 0 0 0 0 0 0 0 0 127 0" result="hardAlpha"/>
<feOffset dy="24"/>
<feGaussianBlur stdDeviation="8.5"/>
<feComposite in2="hardAlpha" operator="out"/>
<feColorMatrix type="matrix" values="0 0 0 0 0 0 0 0 0 0 0 0 0 0 0 0 0 0 0.6 0"/>
<feBlend mode="normal" in2="BackgroundImageFix" result="effect1_dropShadow_18_418"/>
<feBlend mode="normal" in="SourceGraphic" in2="effect1_dropShadow_18_418" result="shape"/>
</filter>
<filter id="filter10_d_18_418" x="-75" y="56" width="210.943" height="217.943" filterUnits="userSpaceOnUse" color-interpolation-filters="sRGB">
<feFlood flood-opacity="0" result="BackgroundImageFix"/>
<feColorMatrix in="SourceAlpha" type="matrix" values="0 0 0 0 0 0 0 0 0 0 0 0 0 0 0 0 0 0 127 0" result="hardAlpha"/>
<feOffset dy="24"/>
<feGaussianBlur stdDeviation="8.5"/>
<feComposite in2="hardAlpha" operator="out"/>
<feColorMatrix type="matrix" values="0 0 0 0 0 0 0 0 0 0 0 0 0 0 0 0 0 0 0.6 0"/>
<feBlend mode="normal" in2="BackgroundImageFix" result="effect1_dropShadow_18_418"/>
<feBlend mode="normal" in="SourceGraphic" in2="effect1_dropShadow_18_418" result="shape"/>
</filter>
<filter id="filter11_d_18_418" x="-66" y="435" width="241.612" height="248.612" filterUnits="userSpaceOnUse" color-interpolation-filters="sRGB">
<feFlood flood-opacity="0" result="BackgroundImageFix"/>
<feColorMatrix in="SourceAlpha" type="matrix" values="0 0 0 0 0 0 0 0 0 0 0 0 0 0 0 0 0 0 127 0" result="hardAlpha"/>
<feOffset dy="24"/>
<feGaussianBlur stdDeviation="8.5"/>
<feComposite in2="hardAlpha" operator="out"/>
<feColorMatrix type="matrix" values="0 0 0 0 0 0 0 0 0 0 0 0 0 0 0 0 0 0 0.6 0"/>
<feBlend mode="normal" in2="BackgroundImageFix" result="effect1_dropShadow_18_418"/>
<feBlend mode="normal" in="SourceGraphic" in2="effect1_dropShadow_18_418" result="shape"/>
</filter>
<filter id="filter12_d_18_418" x="334" y="650" width="207.592" height="214.592" filterUnits="userSpaceOnUse" color-interpolation-filters="sRGB">
<feFlood flood-opacity="0" result="BackgroundImageFix"/>
<feColorMatrix in="SourceAlpha" type="matrix" values="0 0 0 0 0 0 0 0 0 0 0 0 0 0 0 0 0 0 127 0" result="hardAlpha"/>
<feOffset dy="24"/>
<feGaussianBlur stdDeviation="8.5"/>
<feComposite in2="hardAlpha" operator="out"/>
<feColorMatrix type="matrix" values="0 0 0 0 0 0 0 0 0 0 0 0 0 0 0 0 0 0 0.6 0"/>
<feBlend mode="normal" in2="BackgroundImageFix" result="effect1_dropShadow_18_418"/>
<feBlend mode="normal" in="SourceGraphic" in2="effect1_dropShadow_18_418" result="shape"/>
</filter>
<filter id="filter13_d_18_418" x="-72" y="999" width="297.157" height="304.157" filterUnits="userSpaceOnUse" color-interpolation-filters="sRGB">
<feFlood flood-opacity="0" result="BackgroundImageFix"/>
<feColorMatrix in="SourceAlpha" type="matrix" values="0 0 0 0 0 0 0 0 0 0 0 0 0 0 0 0 0 0 127 0" result="hardAlpha"/>
<feOffset dy="24"/>
<feGaussianBlur stdDeviation="8.5"/>
<feComposite in2="hardAlpha" operator="out"/>
<feColorMatrix type="matrix" values="0 0 0 0 0 0 0 0 0 0 0 0 0 0 0 0 0 0 0.6 0"/>
<feBlend mode="normal" in2="BackgroundImageFix" result="effect1_dropShadow_18_418"/>
<feBlend mode="normal" in="SourceGraphic" in2="effect1_dropShadow_18_418" result="shape"/>
</filter>
<filter id="filter14_d_18_418" x="302" y="949" width="210.947" height="217.947" filterUnits="userSpaceOnUse" color-interpolation-filters="sRGB">
<feFlood flood-opacity="0" result="BackgroundImageFix"/>
<feColorMatrix in="SourceAlpha" type="matrix" values="0 0 0 0 0 0 0 0 0 0 0 0 0 0 0 0 0 0 127 0" result="hardAlpha"/>
<feOffset dy="24"/>
<feGaussianBlur stdDeviation="8.5"/>
<feComposite in2="hardAlpha" operator="out"/>
<feColorMatrix type="matrix" values="0 0 0 0 0 0 0 0 0 0 0 0 0 0 0 0 0 0 0.6 0"/>
<feBlend mode="normal" in2="BackgroundImageFix" result="effect1_dropShadow_18_418"/>
<feBlend mode="normal" in="SourceGraphic" in2="effect1_dropShadow_18_418" result="shape"/>
</filter>
<clipPath id="clip0_18_418">
<rect width="1200" height="1200" fill="white"/>
</clipPath>
</defs>
</svg>
